<?xml version="1.0" encoding="UTF-8"?>
<svg id="Layer_1" data-name="Layer 1" xmlns="http://www.w3.org/2000/svg" viewBox="0 0 1920.11 592.3">
  <polygon points="1873.8 284.2 1837.9 86.1 1801.4 316 1790.2 318.8 1750.1 97.5 1736.6 187.8 1733.8 193.3 1722.4 138.7 1721.1 155.1 1713 207.1 1695.3 313.8 1692.5 308.4 1673.8 192.2 1669.7 208.6 1657.5 285.3 1645.3 359.2 1638.3 357.8 1625.5 292.3 1616 351.1 1611.1 352 1600.4 420.9 1597.7 423.7 1583.8 421 1564.4 456.6 1552 467.6 1542.3 478.6 1530.2 486.2 1518.8 503.4 1486.8 503.5 1457.6 517.3 1454.8 516 1429.1 378 1407.5 513.5 1404.8 516.2 1399.2 514.9 1384.9 431.5 1367.3 534.2 1302.1 574.1 1286.8 572.8 1213 559.5 1083.6 558.8 1065 457.7 1051.5 534.3 1048.7 531.6 1027.2 408.6 1008.3 527.7 1005.6 534.5 1001.4 533.2 984.2 434.8 974.8 493.6 939.8 443.2 923.1 443.3 912 444.7 888.3 444.8 849.3 425.9 776.9 412.5 756 408.5 733.7 397.7 722.5 395 708.2 306.2 693.3 385.6 687.7 384.2 682.1 380.2 657.8 242.2 651 283.2 640.2 350.3 637.5 354.4 623.2 283.4 609.7 360 606.9 360 586.9 246.6 566.6 367 562.4 369.8 540.2 375.4 502.7 389.2 499.9 381 479.8 262.2 455.5 408.6 448.5 410 422.8 257 399.8 399.3 397 396.6 364.1 213.5 327.7 447.5 324.9 443.4 297.7 279.4 293.6 295.9 267.9 454.6 265.2 458.7 250.8 372.7 248 361.7 222.3 525.9 218.2 527.3 169.3 487.9 69.7 305.1 0 278.98 0 592.3 1920.1 592.3 1920.11 272.25 1873.8 284.2" style="fill: #662323; stroke-width: 0px;"/>
</svg>