<?xml version="1.0" encoding="UTF-8"?>
<svg id="Layer_1" data-name="Layer 1" xmlns="http://www.w3.org/2000/svg" viewBox="0 0 1920.04 704.81">
  <path d="M1656.04,395.8l-283-203h0s-73,3.62-73,3.62l-34.8-9.41-66.83-18.82-77.87-2.36-20.86-1.27-44.55-12.09-50.12-13.43-29.22-3.96-62.6-7.91-13.9.07-31.89,19.3-48.6,12.54-36.06,17.95-19.41,11.03-29.19,1.51-111.23.53-23.67,1.28c-8.01-3.43-17.1-6.47-26.9-8.85-6.62-1.61-13.09-2.8-19.27-3.6-3.58-1.7-7.36-3.31-11.32-4.79-14.3-5.36-28.04-8.08-38.73-8.15l-27.7-17.58-20.91-12.21-57.12-24.34-37.62-16.23-47.28-1.14-40.38-12.11-57.01-1.1-15.35-10.87-19.54-14.95-12.55-6.78-30.67-16.26-39.03-20.32L61.67,1.31l-12.52-1.31L8.89,12.5.57,16.64l.88,185.16H.04v503h1920l-264-309Z" style="fill: #f7b7b7; stroke-width: 0px;"/>
</svg>