<?xml version="1.0" encoding="UTF-8"?>
<svg id="Layer_1" data-name="Layer 1" xmlns="http://www.w3.org/2000/svg" viewBox="0 0 1920.04 696.39">
  <path d="M1920.04,60.39c-4-56-27.47-57.38-50.41-58.21-25.19.29-54.43-3-78.42,6.4-25.67,13.27-52.96,26.75-77.92,45.69-14.54,11.34-25.82,33.37-40.28,44.78-14.8,12.81-31.38,10.51-47.27,11.75-15.92,2.93-29.38,6.38-44.92,5.61-54.76-6.28-80.47-48.6-136.37-5.98-27.58,12.32-56.79,10.35-84.87,13.82-21.77-7.87-43.23-1.93-65.38-2.21-47.36-7.89-93.96,10.55-141.19,8.12-34.98,7.51-54.69,4.78-88.62-13.49-28.35-13.19-57.68,10.68-85.21,13.15-84.88.85-180.55,10.86-263.98.21-70.22-31.21-151.43-55.42-224.6-82.8-30.86-11.11-61.77-32.42-92.41-43.19-28.22-6.02-63.32-4.47-91.83-.85l-.18.04c-27.97,8.05-56.82,22.04-84.12,34.43-20.81,9.91-41.88,28.55-63.67,30.2C108.35,65.85,60.23,21.81,10.21,23.15L.04,28.39v477h1920V61.39h-1.51l1.51-1Z" style="fill: #ffd6d6; stroke-width: 0px;"/>
</svg>