<?xml version="1.0" encoding="UTF-8"?>
<svg id="Layer_1" data-name="Layer 1" xmlns="http://www.w3.org/2000/svg" viewBox="0 0 1920.03 592.3">
  <path d="M1614.1,351.3c-20.5-2.8-52-10.2-72.4-14.7-7.2-7.3-21.9-23.2-28-31.3l-43.3-29.9c-11.4-8.3-53.2-10.9-66.8-13.4-26.1-8.3-69.3-27.9-96.1-32.4-6.4,3.7-19.7,10.6-26.4,13.8l-2.8,2.8-13.9,6.9-15.3,9.6-9.7,11c-8,11.2-25.5,27.5-31.8,39.8-5.6,1-54.4,18.5-61.1,20.8-14.9,9.3-48.6,31-62.4,41.3-19.7-.2-79.9.4-100.1-3.3l-2.9-3c-24.1-28-49.1-49-75.1-73l-9.2-11.7-16.3-7.8-66.8-3.8-29.2-8.1c-22.2-7.1-56.3-15.4-79.4-17.4-2.7-2.1-30.1-32.3-34.1-34.3l-6.4-5.2-19.6-19.8-7-2c-8.3,3.9-26.3,11.6-34.7,15.2-9.2,1.1-38.7,4.3-47.3,7.1l-65.3,18.1-9.7-1.3c-12.8-5.8-40.9-19-53-25.7-27-6.8-62.6-21.4-90.5-24.2-23.3,12.9-48.2,29.7-72.1,41.4-12.2,1.7-62,10.4-75.1,12.7-25.4,10.5-57.7,22.5-83.3,33.2-15.6.4-39.9-2.2-55.7-2.5L0,275.3v317h1920.01c3.4-20.2-308.41-220.6-306.01-241.1l.1.1Z" style="fill: #944542; stroke-width: 0px;"/>
</svg>