<?xml version="1.0" encoding="UTF-8"?>
<svg id="Layer_1" data-name="Layer 1" xmlns="http://www.w3.org/2000/svg" viewBox="0 0 1920.03 592.34">
  <path d="M1920.03,273.34V29.34L1794.66,0l-71.15.34-65.27,24.05-93.72-10.98-119.58,16.98-39.2,38.47-42.55,26.4-27,30-109.97,45.18c-4.48,7.24-15.38,22.39-20.25,29.55-.44.66-1.22.79-1.96.74-2.94.05-1.1,5.41-3.99,5.52-53.48,1.93-44.99-4.57-91.27,24.75.31.9-14.05-1.3-14.27-1.02-51.47-13.63-124.38-22.51-176.98-29.3-32-9.71-80.87-27.35-112.51-39.02-7.9-4.57-26.39-15.4-33.9-20.47-31.32-7.62-84.16-18.96-115.61-24.37-.25-.37-32.97-32.28-33.48-32.4-8.22-2.76-14.21-5.8-24.3-9.37l-72.66-18.71c-6.36-1.47-10.81-5.35-16.86-1.35-19.78-2.18-51.34-8.72-70.97-11.97-21.65-.35-66.43,2.22-87.57,4.52-53.41,32.17-122.17,55.03-177.57,84.26l-41.52,41.22-57,1.64c-20.18,16.65-43.95,37.77-63.7,55L.03,248.34c-.1.93.07,342.99,0,344h1920v-317.86c-1-1.14-1.27-.8,0-1.14ZM146.04,249.33h-.14s.09-.04.14-.05v.05Z" style="fill: #eb9999; stroke-width: 0px;"/>
</svg>