<?xml version="1.0" encoding="UTF-8"?>
<svg id="Layer_1" data-name="Layer 1" xmlns="http://www.w3.org/2000/svg" viewBox="0 0 1920 1080.15">
   <path id="bg" d="M1920,1080.15c0-37,0-23.05,0-51.47,0,0,0-976.54,0-1028.53-237.13-.33-912.84-.06-1093,.3-46.72-5.56-67.6,44.44-101,47.95-150.45,0-313-1.22-366-1.22-26-.61-56.27-30.48-76-40.66-9-4.25-25.63-6.07-33-6.07C194.84.32,69.89.69,0,.15c0,4.57,0,1080,0,1080M1908.01,1031.02c0,21.88-18.64,39.61-41.64,39.61H55.63c-22.99,0-41.64-17.74-41.64-39.61V104.17c0-21.88,18.64-39.61,41.64-39.61h1810.74c22.99,0,41.64,17.74,41.64,39.61v926.85Z" style="fill: #d9d9d9; stroke-width: 0px;"/>
   <path id="green" d="M174.34,27.24c4.99-8.03,13-10.17,20.11-5.59,6.95,4.48,8.56,12.63,3.88,19.61-3.5,5.22-10.83,7.41-16.53,4.95-6.26-2.71-9.86-9.19-8.53-15.42.24-1.1.6-2.18,1.07-3.54Z" style="fill: #26aa82; stroke-width: 0px;"/>
   <path id="yellow" d="M133.33,19.13c11.69,2.02,17.43,11.68,12.59,20.61-3.65,6.74-10.78,9.36-18.08,6.65-6.85-2.54-10.08-9.16-8.24-16.92,1.4-5.89,5.8-9.3,13.73-10.34Z" style="fill: #f7b411; stroke-width: 0px;"/>
   <path id="red" d="M67.66,38.83c-2.46-6.07-1.23-11.19,3.2-15.34,3.65-3.42,8.11-4.34,12.98-2.7,5.68,1.91,8.81,6.3,8.85,12.47.04,6.51-2.91,10.55-9.17,12.61-5.11,1.68-10.99-.22-14.31-4.63-.51-.68-.94-1.41-1.54-2.41Z" style="fill: #e6394e; stroke-width: 0px;"/>
</svg>